<svg width="40" height="40" viewBox="0 0 40 40" fill="none" xmlns="http://www.w3.org/2000/svg">
<path fill-rule="evenodd" clip-rule="evenodd" d="M21.0505 22.2327C25.9215 17.3553 31.2664 13.2335 35.8652 8.03716C37.022 6.72976 37.9174 5.96548 36.9153 4.17857C36.2458 2.98566 35.4775 2.3809 34.3474 3.19802C31.6452 5.15227 29.0719 7.55276 26.4683 9.68414C21.1297 14.0526 15.5945 18.3369 10.7751 23.4031C8.59398 25.6979 6.5782 28.1933 4.88431 30.9461C3.10683 33.8339 1.76417 36.7638 3.75149 40C9.54096 34.1098 15.2211 28.069 21.0505 22.2327Z" fill="black"/>
<path fill-rule="evenodd" clip-rule="evenodd" d="M19.3107 20.7027C24.5952 25.1081 29.1968 30.078 34.7617 34.1721C36.1619 35.2019 37.0045 36.0264 38.633 34.812C39.7201 34.0007 40.2238 33.1542 39.3038 32.0973C37.1036 29.5704 34.4832 27.2235 32.1215 24.8163C27.2806 19.88 22.4999 14.7348 17.0373 10.4026C14.5631 8.44208 11.9119 6.6716 9.04583 5.25622C6.03906 3.77093 3.03934 2.7316 0.109121 5.10594C6.48077 10.3319 12.987 15.4302 19.3107 20.7027Z" fill="black"/>
</svg>
