<svg width="39" height="24" viewBox="0 0 39 24" fill="none" xmlns="http://www.w3.org/2000/svg">
<path fill-rule="evenodd" clip-rule="evenodd" d="M19.6433 5.44396C25.0945 5.49762 30.3956 6.2371 35.8696 5.96049C37.2467 5.89075 38.1756 5.97382 38.5981 4.4188C38.8798 3.38037 38.7803 2.61162 37.6896 2.42514C35.0812 1.97954 32.2989 1.8537 29.6483 1.56188C24.2143 0.962357 18.7159 0.205215 13.1893 0.285208C10.687 0.322482 8.16712 0.564216 5.68673 1.13025C3.08438 1.72379 0.704456 2.5863 0.0367335 5.5C6.56745 5.51225 13.1198 5.37931 19.6433 5.44396Z" fill="black"/>
<path fill-rule="evenodd" clip-rule="evenodd" d="M19.6383 14.3969C25.0895 14.4505 30.3906 15.19 35.8646 14.9134C37.2417 14.8437 38.1706 14.9268 38.5931 13.3717C38.8748 12.3333 38.7753 11.5645 37.6846 11.3781C35.0762 10.9325 32.2939 10.8066 29.6433 10.5148C24.2093 9.91529 18.7109 9.15815 13.1843 9.23814C10.682 9.27541 8.16212 9.51715 5.68173 10.0832C3.07938 10.6767 0.699457 11.5392 0.0317342 14.4529C6.56245 14.4652 13.1148 14.3322 19.6383 14.3969Z" fill="black"/>
<path fill-rule="evenodd" clip-rule="evenodd" d="M19.6383 22.1645C25.0895 22.2182 30.3906 22.9577 35.8646 22.6811C37.2417 22.6113 38.1706 22.6944 38.5931 21.1394C38.8748 20.1009 38.7753 19.3322 37.6846 19.1457C35.0762 18.7001 32.1506 17.5867 29.5 17.2949C24.066 16.6954 18.7109 16.9258 13.1843 17.0058C10.682 17.0431 8.16212 17.2848 5.68173 17.8508C3.07938 18.4444 -1.53173 18.9752 1 23.345C7.53072 23.3572 13.1148 22.0999 19.6383 22.1645Z" fill="black"/>
</svg>
