<svg width="400" height="298" viewBox="0 0 400 298" fill="none" xmlns="http://www.w3.org/2000/svg">
<path fill-rule="evenodd" clip-rule="evenodd" d="M397.23 242.204C397.105 242.777 396.797 243.059 396.273 243.196C395.408 243.421 394.46 243.456 393.577 243.572C391.965 243.785 390.297 243.873 388.716 244.287C387.235 244.674 385.755 245.252 384.418 246.047C384.855 243.784 385.351 241.586 385.167 239.254C385.032 237.543 384.995 234.964 383.397 233.975C383.027 233.745 382.442 233.832 382.031 233.808C381.496 233.777 380.961 233.75 380.426 233.718C379.368 233.655 378.316 233.534 377.261 233.423C375.182 233.203 373.118 232.93 371.051 232.601C370.709 232.546 370.096 232.587 369.867 232.266C369.698 232.03 369.779 231.657 369.792 231.392C369.835 230.476 369.801 229.562 369.696 228.652C369.466 226.659 368.958 224.698 368.389 222.791C368.102 221.828 367.794 220.871 367.504 219.908C367.364 219.442 367.04 218.807 367.504 218.474C367.794 218.266 368.3 218.267 368.638 218.176C369.039 218.068 369.43 217.926 369.823 217.787C370.749 217.457 371.675 217.122 372.6 216.789C376.118 215.52 379.667 214.335 383.175 213.041C383.666 212.86 384.153 212.671 384.644 212.49C384.857 212.412 385.226 212.211 385.455 212.319C385.722 212.447 385.671 212.766 385.863 212.956C386.031 213.121 386.411 213.133 386.627 213.268C387.176 213.611 387.519 214.209 387.95 214.691C388.504 215.312 389.123 215.857 389.67 216.489C391.877 219.041 393.511 222.113 394.893 225.254C395.266 226.1 395.508 226.976 395.741 227.876C395.961 228.728 396.242 229.561 396.367 230.438C396.658 232.486 396.669 234.593 396.903 236.654C397.098 238.381 397.607 240.473 397.23 242.204ZM383.208 237.578C383.203 238.942 383.137 240.315 382.861 241.65C382.577 243.027 382.063 244.345 381.605 245.661C381.172 246.904 380.823 248.184 380.321 249.396C379.827 250.592 379.193 251.682 378.796 252.924C377.982 255.469 376.588 257.702 375.601 260.16C374.593 262.673 373.47 265.072 372.217 267.454C371.621 268.586 371.068 269.84 370.315 270.86C369.941 271.367 369.513 271.872 369.081 272.32C368.704 272.711 368.523 272.413 368.067 272.501C367.402 272.63 367.059 273.564 366.629 274.045C365.814 274.955 364.981 275.854 364.088 276.674C363.174 277.513 362.163 278.215 361.225 279.023C360.329 279.795 359.435 280.493 358.412 281.055C356.39 282.167 354.066 283.53 351.734 283.414C350.661 283.36 350.087 282.604 349.637 281.594C349.161 280.526 349.322 279.245 349.402 278.098C349.497 276.723 349.804 275.51 350.482 274.343C351.149 273.193 350.491 272.479 349.826 271.521C348.341 269.381 346.363 267.715 344.558 265.907C343.627 264.973 342.703 264.029 341.78 263.086C341.27 262.564 340.761 262.041 340.252 261.519C339.878 261.136 339.519 260.877 339.384 260.34C340.399 259.747 341.458 259.242 342.393 258.501C344.303 256.988 346.056 255.143 347.856 253.479C348.721 252.679 349.405 251.688 350.099 250.722C350.77 249.789 351.538 248.908 352.117 247.901C353.362 245.736 354.781 243.592 355.768 241.271C356.26 240.114 356.514 238.934 356.771 237.698C356.926 236.954 357.105 236.216 357.279 235.476C357.391 235 357.423 234.179 357.705 233.785C358.224 233.06 359.855 234.231 360.452 234.437C361.576 234.824 362.748 235.008 363.911 235.203C366.377 235.616 368.861 235.969 371.311 236.481C372.595 236.749 373.882 237.047 375.185 237.187C376.448 237.323 377.718 237.252 378.983 237.242C379.254 237.24 379.585 237.292 379.767 237.022C379.871 236.868 379.802 236.677 379.968 236.533C380.186 236.345 380.47 236.446 380.719 236.474C381.226 236.533 381.734 236.566 382.24 236.635C382.458 236.664 382.893 236.624 383.08 236.749C383.277 236.88 383.209 237.276 383.208 237.578ZM347.708 274.203C347.118 275.491 346.777 277.293 346.759 278.72C346.75 279.486 346.843 280.25 346.988 280.999C347.114 281.652 347.46 282.403 347.351 283.061C345.854 282.311 344.383 281.505 342.856 280.828C341.537 280.244 340.546 279.227 339.46 278.26C338.294 277.223 337.239 276.066 336.119 274.973C334.917 273.8 333.663 272.691 332.441 271.545C330.264 269.503 328.437 267.208 326.65 264.768C325.079 262.623 322.827 259.888 322.932 256.986C322.982 255.639 323.073 254.108 323.683 252.902C324.19 251.901 325.106 250.778 325.963 250.109C326.787 249.465 327.597 251.083 328.06 251.651C329.058 252.874 330.075 254.078 331.087 255.287C333.012 257.588 334.839 260.003 336.921 262.141C339.02 264.295 341.165 266.403 343.425 268.356C344.556 269.334 345.803 270.246 346.83 271.353C347.207 271.76 347.939 272.208 348.19 272.715C348.46 273.262 347.919 273.742 347.708 274.203ZM399.215 242.44C398.898 242.395 398.913 242.442 398.886 242.105C398.844 241.583 399.007 240.967 399.056 240.444C399.29 237.955 399.178 235.347 398.978 232.858C398.584 227.969 397.654 223.162 395.293 218.921C394.203 216.964 392.971 215.117 391.426 213.548C390.714 212.825 390.019 212.047 389.231 211.419C388.836 211.104 388.26 210.944 387.901 210.622C387.706 210.447 387.62 210.092 387.456 209.869C386.801 208.98 386.061 208.75 385.016 208.846C383.932 208.946 382.796 209.314 381.75 209.628C379.524 210.296 377.39 211.432 375.234 212.329C373.069 213.229 370.928 214.189 368.793 215.169C367.864 215.594 366.744 215.929 365.92 216.571C365.422 216.959 365.275 217.442 365.329 218.087C365.518 220.368 366.3 222.634 366.895 224.816C367.534 227.159 368.054 229.547 368.217 231.99C366.011 231.815 363.819 231.633 361.623 231.333C360.524 231.182 359.42 231.059 358.324 230.896C357.757 230.812 357.492 230.582 357.037 230.264C356.637 229.984 356.431 230.221 356.26 230.646C355.372 232.855 355.022 235.266 354.06 237.459C353.628 238.444 353.089 239.364 352.64 240.339C352.152 241.399 351.563 242.443 350.951 243.423C350.667 243.879 350.302 244.247 349.987 244.674C349.695 245.07 349.485 245.525 349.217 245.939C348.657 246.803 347.977 247.566 347.29 248.311C346.6 249.059 345.931 249.819 345.272 250.598C344.624 251.365 343.85 251.988 343.166 252.712C342.521 253.393 341.96 254.134 341.298 254.802C340.661 255.445 340.363 256.338 339.678 256.916C339.308 257.228 338.898 257.479 338.531 257.793C338.227 258.053 337.91 258.507 337.478 258.42C337 258.323 336.615 257.626 336.315 257.267C335.929 256.804 335.541 256.343 335.15 255.885C333.614 254.085 332.039 252.321 330.491 250.533C329.734 249.659 328.901 248.866 328.163 247.971C327.626 247.32 326.746 246.856 325.993 247.302C325.233 247.751 324.321 248.148 323.706 248.823C323.04 249.555 322.508 250.506 321.966 251.345C321.4 252.219 321.176 253.252 321.028 254.291C320.871 255.398 320.707 256.495 320.784 257.619C320.932 259.747 321.298 262.121 322.434 263.913C322.976 264.767 323.717 265.409 324.381 266.143C325.099 266.94 325.613 267.898 326.206 268.802C327.394 270.615 328.854 272.239 330.343 273.765C331.054 274.492 331.858 275.106 332.572 275.836C333.334 276.615 334.106 277.319 334.966 277.967C335.845 278.63 336.572 279.493 337.367 280.264C338.185 281.058 339.024 281.798 339.925 282.479C341.653 283.784 343.411 284.634 345.421 285.29C347.635 286.013 349.777 286.96 351.979 287.715C353.034 288.078 354.078 287.577 355.083 287.21C356.107 286.837 357.113 286.394 358.056 285.818C359.969 284.65 361.807 283.295 363.689 282.065C365.647 280.786 367.282 279.319 368.778 277.447C370.203 275.662 371.711 273.89 373.009 271.994C375.644 268.145 377.237 263.591 379.193 259.329C380.233 257.063 381.286 254.832 382.151 252.477C382.576 251.319 382.957 250.14 383.391 248.986C383.575 248.497 383.727 248.306 384.22 248.223C384.789 248.127 385.371 248.085 385.942 248.011C388.204 247.719 390.412 247.285 392.653 246.866C394.733 246.478 396.826 246.076 398.686 244.932C399.077 244.691 399.546 244.408 399.759 243.958C399.856 243.753 400.095 242.711 399.96 242.545C399.881 242.447 399.35 242.459 399.215 242.44Z" fill="black"/>
<path fill-rule="evenodd" clip-rule="evenodd" d="M381.728 284.353C382.462 283.397 382.944 282.019 383.478 280.917C384.05 279.736 384.579 278.644 384.821 277.33C384.938 276.697 385.008 276.051 385.141 275.423C385.267 274.829 385.447 274.305 385.395 273.685C385.341 273.037 385.063 271.086 384.154 271.302C383.626 271.427 383.732 272.039 383.729 272.486C383.725 272.998 383.67 273.509 383.531 273.999C383.202 275.16 382.418 276.182 381.922 277.271C381.441 278.326 380.871 279.287 380.152 280.17C379.46 281.021 378.687 281.826 377.875 282.542C377.162 283.17 376.302 283.645 375.782 284.498C375.472 285.009 375.42 285.161 374.85 285.302C374.389 285.416 373.957 285.598 373.569 285.895C373.13 286.232 372.819 286.636 372.305 286.857C371.858 287.05 371.385 287.165 370.933 287.346C369.89 287.763 368.979 288.467 367.913 288.861C367.362 289.065 366.801 289.24 366.243 289.421C365.797 289.565 365.269 289.665 364.899 289.991C364.279 290.54 363.932 291.942 364.474 292.671C365.058 293.456 366.428 292.965 367.188 292.865C367.198 292.918 367.207 292.972 367.217 293.025C368.497 292.747 369.831 292.583 371.075 292.148C371.732 291.918 372.323 291.589 372.923 291.226C373.432 290.918 373.953 290.81 374.497 290.613C374.984 290.438 375.373 290.172 375.677 289.717C376.066 289.134 376.23 289.308 376.83 289.166C377.793 288.937 378.624 287.752 379.287 287.037C380.094 286.165 380.999 285.302 381.728 284.353Z" fill="black"/>
<path fill-rule="evenodd" clip-rule="evenodd" d="M386.655 290.863C386.339 290.779 385.815 291.156 385.58 291.324C384.646 291.99 383.679 292.606 382.734 293.256C381.863 293.854 381.004 294.471 380.147 295.092C379.434 295.609 378.966 296.244 379.217 297.221C379.332 297.666 379.521 298.188 379.999 297.933C380.349 297.745 380.652 297.563 381.037 297.416C382.007 297.044 382.985 296.677 383.891 296.14C385.461 295.212 386.931 293.774 387.142 291.749C387.025 291.462 386.991 290.953 386.655 290.863Z" fill="black"/>
<path fill-rule="evenodd" clip-rule="evenodd" d="M39.6631 47.3468C39.7902 45.5559 39.7387 43.7601 39.8587 41.9702C39.973 40.2699 40.2903 38.5379 40.5987 36.8664C40.9125 35.1664 41.483 33.6572 42.124 32.0789C42.4778 31.2084 42.8198 30.3321 43.1627 29.4564C43.3721 28.9193 43.5251 28.3628 44.1056 28.2195C44.8581 28.0339 45.7664 28.1845 46.5403 28.1547C47.3225 28.1245 48.1038 28.0735 48.8834 27.9985C50.5778 27.8355 52.2616 27.5673 53.9532 27.3772C55.5733 27.1954 57.1755 27.0889 58.7751 26.7273C59.5983 26.5414 60.4144 26.3239 61.2309 26.1067C61.8428 25.9443 62.6906 25.529 63.306 25.6869C62.5449 27.5635 62.308 29.5667 62.2891 31.5977C62.2821 32.3981 62.1946 32.7256 61.4249 32.6764C60.4644 32.6149 59.5 32.5102 58.5446 32.3912C56.7416 32.166 54.9531 31.8087 53.1655 31.4735C52.3183 31.3146 51.5047 31.0884 50.6735 30.8893C50.0834 30.7484 49.8353 31.0017 49.6381 31.5852C49.4956 32.0075 49.4498 32.1976 49.0838 32.4359C48.7851 32.6306 48.4908 32.8151 48.2155 33.05C47.7253 33.4681 47.3036 33.9704 46.9428 34.521C46.1423 35.7412 45.6287 37.1752 45.1587 38.5733C43.9769 42.092 43.382 45.9191 43.2722 49.656C43.2168 51.5562 42.927 53.419 42.9082 55.3254C42.8992 56.1657 43.0971 57.2471 42.449 57.8577C41.8151 58.4559 41.0008 58.8847 40.2935 59.3746C39.6737 57.4518 39.5139 55.4125 39.495 53.3891C39.4755 51.372 39.5206 49.3577 39.6631 47.3468ZM65.896 37.1703C66.6705 37.3934 67.4485 37.5908 68.2294 37.7868C66.9013 41.2326 66.9481 45.0445 66.8475 48.7176C66.803 50.3603 66.8437 52.0073 66.9929 53.6427C67.1466 55.3157 67.4937 56.9127 67.8058 58.553C67.8737 58.9111 68.0373 59.4984 67.8193 59.827C67.5779 60.1909 66.7867 60.3873 66.4438 60.5549C65.0827 61.2196 63.7424 61.9402 62.3535 62.5366C60.9453 63.1413 59.4824 63.5042 58.1056 64.2068C56.758 64.8941 55.3924 65.5241 53.9893 66.0674C52.6106 66.6021 51.1797 66.9938 49.8491 67.6654C48.5869 68.3028 47.545 69.1781 46.4727 70.1225C45.8209 67.9301 45.5666 65.6997 45.4488 63.4019C45.3358 61.2026 45.1693 58.9131 45.3768 56.7187C45.4712 55.7175 45.4715 54.7863 45.453 53.7836C45.4363 52.8864 45.6278 52.0066 45.6937 51.1139C45.8391 49.1467 45.8333 47.182 46.0792 45.2225C46.5451 41.5164 47.4695 37.5936 49.3342 34.4166C49.453 34.214 49.5692 33.8872 49.7332 33.7377C50.0095 33.4861 49.9115 33.5333 50.2749 33.7359C50.614 33.9243 50.9483 34.1248 51.2985 34.2896C52.0333 34.6359 52.8197 34.7882 53.5865 35.0241C54.4357 35.2854 55.2064 35.6857 56.0878 35.8339C56.9417 35.9772 57.8094 35.9945 58.663 36.1399C59.135 36.2204 59.5682 36.3893 60.0273 36.5163C60.4013 36.6197 60.7676 36.5923 61.1611 36.637C61.9215 36.7241 62.6618 36.9545 63.4241 37.0291C64.2816 37.113 65.0449 36.9254 65.896 37.1703ZM37.799 53.1695C38.0619 55.4382 38.6222 57.6603 39.4393 59.7687C39.7018 60.4466 39.998 61.3955 40.7485 61.5829C41.4408 61.7556 42.2796 61.2047 42.9322 61.0114C43.4435 64.3036 43.6673 67.7244 45.0242 70.7758C45.1955 71.1609 45.4213 71.879 45.7738 72.1313C46.1337 72.389 46.5714 72.1375 46.9303 71.9897C48.438 71.3711 49.9951 70.9753 51.5553 70.5471C52.3161 70.3383 53.0912 70.1527 53.8337 69.8734C54.4504 69.6413 55.0331 69.3627 55.6793 69.236C57.0295 68.9717 58.2839 68.4932 59.5746 67.9999C62.2837 66.9639 65.0071 66.0258 67.5071 64.4701C68.7001 63.7276 69.9517 63.0001 71.0535 62.1036C71.957 61.3684 72.9678 60.2666 72.525 58.9315C72.3912 58.5277 72.0246 57.8595 71.6026 57.7363C71.2062 57.6201 70.8504 58.0083 70.488 58.0978C69.9399 58.2335 70.0628 57.7547 70.0119 57.2874C69.9719 56.9193 69.9299 56.5512 69.8886 56.1827C69.8022 55.4097 69.717 54.636 69.6533 53.8603C69.3895 50.6466 69.5134 47.4349 69.5108 44.216C69.5095 42.6044 69.854 41.1917 70.2014 39.6391C70.3855 38.8155 70.5575 37.9884 70.7195 37.1595C70.8092 36.6988 70.9135 36.193 70.7903 35.7267C70.5139 34.6813 69.1388 34.3923 68.3245 34.0947C67.6246 33.8386 66.9141 33.6162 66.1896 33.4594C65.7922 33.3737 64.7311 33.4407 64.4743 33.0795C64.2201 32.7222 64.5016 31.562 64.5272 31.1366C64.5749 30.3532 64.6248 29.5705 64.7202 28.7917C64.8736 27.5354 64.857 26.3703 63.9313 25.4516C64.5086 24.9534 64.9184 23.8963 64.0789 23.4373C63.1133 22.9089 61.821 22.8322 60.8009 23.1094C59.6854 23.4127 58.461 23.4165 57.3186 23.549C56.1029 23.6895 54.8907 23.8606 53.6775 24.0264C51.5905 24.3123 49.4648 24.3751 47.4032 24.8337C46.3709 25.0631 45.3377 25.2376 44.2971 25.4156C43.2194 25.5994 42.5697 25.7559 41.9246 26.7405C40.7021 28.6081 39.5731 30.5218 38.8867 32.702C38.2367 34.7674 37.9332 36.9375 37.7526 39.1041C37.5582 41.4394 37.5144 43.7681 37.5387 46.1113C37.563 48.4678 37.5275 50.8256 37.799 53.1695Z" fill="black"/>
<path fill-rule="evenodd" clip-rule="evenodd" d="M29.8033 75.1289C31.1266 78.4373 33.2543 81.0746 35.4271 83.7598C36.5765 85.1809 37.7501 86.4714 39.1442 87.615C40.4416 88.6792 41.7549 89.7179 43.0651 90.7631C41.7505 92.5922 40.2735 94.2648 38.8086 95.9556C37.4553 97.5174 36.1066 99.114 35.215 101.043C35.1224 100.12 34.569 99.5491 33.8228 99.1725C32.8913 98.7026 32.0351 98.1919 31.2261 97.4992C29.5092 96.0292 27.9119 94.2778 26.4499 92.5199C23.4761 88.9443 21.5809 84.4473 19.5147 80.2419C22.944 78.5377 26.374 76.8335 29.8033 75.1289ZM18.8119 83.475C19.314 85.0034 20.042 86.4748 20.7078 87.927C21.364 89.3577 22.0441 90.7799 22.8107 92.1468C24.2673 94.7439 26.0476 97.1645 28.3183 98.9864C29.4298 99.8782 30.6216 100.767 31.858 101.446C32.4425 101.767 33.0837 102.011 33.7488 101.97C34.1562 101.945 34.7199 101.554 35.0357 101.903C35.3591 102.26 35.252 102.974 35.9311 102.627C36.4888 102.343 36.9791 101.737 37.389 101.262C38.4331 100.054 39.4814 98.8382 40.4837 97.5893C41.4551 96.379 42.2529 94.9998 43.0731 93.6687C43.5257 92.9337 43.9736 92.1956 44.4225 91.4579C44.7437 90.9299 45.2012 90.4016 45.1772 89.733C45.1313 88.4284 43.6537 87.5438 42.814 86.8184C41.7849 85.929 40.8292 85.0155 39.9529 83.9513C39.0204 82.8187 37.8461 81.8705 36.8371 80.8074C35.7416 79.6538 34.7521 78.3987 33.7702 77.1341C32.9908 76.1301 32.2182 75.101 31.5579 74.0018C31.042 73.1426 30.4598 72.4833 29.4282 72.6425C28.6208 72.8448 27.8111 72.9885 27.0331 73.3098C26.2505 73.6327 25.4973 74.0406 24.7372 74.4197C23.359 75.1065 22.0913 75.9753 20.7528 76.7389C20.4494 76.9119 20.1489 77.0907 19.8736 77.3129C19.7217 77.4353 19.5676 77.6716 19.4062 77.7593C19.2866 77.824 19.2043 77.8092 19.0671 77.8512C18.5248 78.0159 18.3203 78.3434 18.0492 78.8589C17.6134 79.6878 17.6255 80.1332 18.0243 80.9828C18.3889 81.759 18.5427 82.6564 18.8119 83.475Z" fill="black"/>
<path fill-rule="evenodd" clip-rule="evenodd" d="M26.809 43.2114C27.236 43.8307 28.1524 43.8341 28.0915 42.9268C28.0365 42.0946 27.7977 41.2746 27.5496 40.4907C27.2965 39.6904 27.3486 38.8209 27.334 37.9852C27.2998 35.9898 27.36 34.0569 27.7062 32.0927C28.0387 30.2023 28.2534 28.2891 28.6425 26.4099C29.0242 24.5656 29.7156 22.8223 30.1416 20.9937C30.2735 20.4289 30.3793 19.3266 29.6156 19.1976C28.9806 19.0905 28.6064 20.0541 28.3605 20.5093C27.5421 22.0234 26.6595 23.4235 26.174 25.1107C25.7363 26.6307 25.4057 28.2489 25.2523 29.832C25.0914 31.4914 25.1155 33.1679 25.0217 34.8321C25.1751 36.7658 25.0937 38.9061 25.6675 40.7597C25.9264 41.5943 26.3189 42.5003 26.809 43.2114Z" fill="black"/>
<path fill-rule="evenodd" clip-rule="evenodd" d="M0.202401 88.3565C0.382141 89.1194 0.585614 89.8764 0.845099 90.6126C1.3473 92.0345 1.99664 93.4009 2.79851 94.652C4.12157 96.7168 5.86803 98.6781 7.76322 100.13C8.3882 100.609 9.90524 101.948 10.7172 101.501C11.828 100.89 10.3416 99.3306 9.89036 98.8742C8.9597 97.9316 8.03441 96.9819 7.0933 96.0513C6.14935 95.1176 5.44716 93.9214 4.70256 92.8032C3.95259 91.6769 3.2197 90.5361 2.54061 89.3577C2.18904 88.7484 1.88272 88.1089 1.53368 87.4989C1.23179 86.9713 0.784026 86.6092 0.395115 86.1641C0.0713916 86.3311 0.109048 86.302 0.025823 86.6198C-0.0099353 86.7563 0.00113991 87.034 0.00335503 87.1595C0.00968393 87.572 0.108417 87.9587 0.202401 88.3565Z" fill="black"/>
<path fill-rule="evenodd" clip-rule="evenodd" d="M64.5436 248.19C63.6622 249.417 62.7824 250.631 61.9949 251.934C61.2027 253.244 60.4473 254.581 59.6719 255.903C58.9242 257.179 58.0893 258.417 57.4881 259.785C57.1411 260.574 57.1077 261.613 56.155 261.576C54.8961 261.527 53.7037 261.138 52.5948 260.501C50.3717 259.224 48.5217 257.429 47.1336 255.153C45.6933 252.792 44.5751 250.12 43.7653 247.434C43.3174 245.949 42.9584 244.434 42.634 242.912C42.4692 242.14 42.2928 241.384 42.2916 240.587C42.2906 240.236 42.3107 239.886 42.3275 239.536C42.3431 239.205 42.5134 238.627 42.1617 238.605C42.2667 237.653 42.3673 236.701 42.4752 235.751C42.5532 235.063 42.5481 234.293 43.1045 233.838C43.6367 233.403 44.4719 233.388 45.099 233.234C45.8575 233.048 46.6097 232.831 47.3536 232.584C48.8795 232.077 50.3399 231.407 51.8127 230.746C52.5476 230.416 53.2836 230.08 53.9775 229.655C54.5507 229.303 54.962 228.792 55.3506 229.594C57.9973 235.055 59.9307 241.176 64.2638 245.413C64.6143 245.756 65.1878 246.168 65.2394 246.729C65.2891 247.276 64.8234 247.8 64.5436 248.19ZM68.0278 244.33C67.4169 243.876 66.659 243.801 66.0393 243.382C65.3289 242.902 64.8587 241.819 64.3736 241.098C63.2156 239.378 62.0554 237.647 61.0098 235.842C60.0606 234.204 59.2015 232.506 58.2895 230.843C57.8223 229.992 57.34 229.162 56.7897 228.37C56.5554 228.033 55.9611 226.843 55.4601 226.888C55.2017 226.91 55.2122 227.182 55.0269 227.27C54.9314 227.315 54.8554 227.266 54.7621 227.279C54.4269 227.328 54.0625 227.144 53.7171 227.181C52.8637 227.27 51.9394 227.659 51.1181 227.927C49.4034 228.487 47.768 229.275 46.0819 229.922C44.4105 230.564 42.544 230.992 41.0164 231.991C40.4132 232.385 39.7321 233.016 40.3244 233.788C40.5492 234.081 40.8573 234.073 41.0909 234.3C41.2883 234.492 41.2004 234.597 41.1549 234.916C41.1288 235.099 41.102 235.281 41.0759 235.463C40.8025 237.38 40.5788 239.3 40.8254 241.236C41.075 243.191 41.4535 245.139 41.9596 247.035C43.5575 253.022 46.4158 260.127 52.0326 262.78C53.3456 263.4 54.6516 263.547 56.0369 263.826C56.4723 263.915 56.8413 264.128 57.2283 264.345C57.4136 264.448 57.6428 264.616 57.8656 264.586C58.3739 264.518 58.7921 263.663 59.0293 263.258C59.926 261.731 60.9436 260.297 61.8746 258.795C62.3562 258.017 62.8123 257.22 63.207 256.386C63.4356 255.904 63.5992 255.104 64.2275 255.122C64.3969 255.367 64.5665 255.612 64.7359 255.857C64.804 255.955 64.9061 256.064 64.9558 256.174C65.0806 256.45 65.0707 256.246 65.0188 256.572C64.9523 256.991 64.5945 257.463 64.3688 257.793C63.0472 259.727 61.6674 261.614 60.2818 263.494C58.9204 265.343 57.5301 267.177 55.935 268.797C55.6123 269.124 55.2586 269.524 54.7869 269.546C54.3508 269.566 53.8734 269.319 53.4408 269.237C52.5005 269.06 51.5348 269.019 50.6178 268.711C50.1409 268.551 49.7424 268.252 49.2487 268.216C48.8334 268.185 48.5504 268.11 48.1862 267.872C47.3625 267.333 46.4467 267.038 45.6137 266.529C43.8958 265.48 42.1206 263.921 40.8614 262.276C40.2089 261.423 39.6735 260.474 39.0331 259.611C38.4108 258.771 37.7965 257.938 37.2522 257.034C36.1788 255.254 35.3248 253.325 34.6755 251.318C34.3381 250.276 34.17 249.595 35.0091 248.832C35.8004 248.113 36.5414 247.362 37.2006 246.497C37.5211 246.076 38.984 244.53 37.8888 244.273C37.2954 244.133 36.3482 245.217 35.9022 245.61C35.1762 246.25 34.4644 246.87 33.6244 247.328C32.6733 247.847 32.6558 248.505 32.6695 249.582C32.6982 251.803 33.4618 253.967 34.2534 255.994C35.0673 258.077 36.0926 260.055 37.319 261.886C39.6652 265.388 42.2896 268.94 45.9371 270.899C47.7403 271.868 49.6883 272.379 51.6809 272.62C52.8577 272.763 54.0437 272.813 55.2268 272.781C55.7262 272.768 56.3788 272.841 56.8578 272.677C57.2461 272.543 57.3098 272.231 57.4502 271.85C57.7834 270.946 58.6543 270.455 59.2432 269.731C59.8722 268.957 60.5317 268.229 61.1785 267.473C62.5797 265.837 63.5072 263.912 64.633 262.065C65.256 261.043 65.9298 260.043 66.4732 258.967C66.9131 258.095 67.4596 256.949 67.613 255.966C67.7346 255.182 67.1518 254.042 66.35 253.998C65.9317 253.976 65.5969 254.332 65.185 254.378C65.0615 254.392 64.6394 254.3 64.4917 254.366C65.1652 252.594 66.1638 250.926 66.9207 249.202C67.3475 248.23 67.7521 247.246 68.1277 246.25C68.4135 245.491 68.7535 244.869 68.0278 244.33Z" fill="black"/>
<path fill-rule="evenodd" clip-rule="evenodd" d="M47.7834 284.007C46.9246 284.31 46.2868 284.544 45.3521 284.448C44.6971 284.381 44.0491 284.236 43.3963 284.147C41.7133 283.919 40.1086 283.416 38.5639 282.665C37.1596 281.983 35.8445 281.161 34.6852 280.066C34.0735 279.489 33.5208 278.854 32.9776 278.205C32.5883 277.739 32.229 277.388 31.6246 277.306C31.7814 278.247 31.9649 278.989 32.38 279.845C32.7132 280.531 33.0945 281.19 33.523 281.812C34.3988 283.083 35.4737 284.188 36.6884 285.082C37.8821 285.962 39.2249 286.709 40.6327 287.094C41.4183 287.309 42.2227 287.437 43.0182 287.603C43.7694 287.759 44.4999 287.916 45.267 287.802C45.9848 287.695 46.7414 287.668 47.44 287.449C47.9921 287.276 48.5181 286.896 48.9889 286.549C49.9068 285.873 48.9067 283.61 47.7834 284.007Z" fill="black"/>
<path fill-rule="evenodd" clip-rule="evenodd" d="M319.458 24.9519C320.18 24.5402 320.917 24.1604 321.651 23.7744C323.206 22.9556 324.738 22.0814 326.311 21.3025C327.023 20.95 327.767 20.7253 328.498 20.4293C329.274 20.1153 330.017 19.7005 330.762 19.3104C332.329 18.4895 333.931 17.7822 335.558 17.1154C336.056 16.9111 336.556 16.7103 337.055 16.5102C337.439 16.3568 337.906 16.0622 338.305 16.0117C338.938 15.9313 339.413 16.63 339.844 17.0503C342.171 19.318 343.814 22.68 344.814 25.8593C345.36 27.5941 345.607 29.3854 345.898 31.1843C346.196 33.0279 346.513 34.8324 346.525 36.7071C346.537 38.613 346.717 40.4919 346.64 42.4022C346.61 43.1147 346.729 44.3961 346.367 45.0172C346 45.6462 345.08 45.8221 344.488 46.0544C341.249 47.3257 338.015 48.6939 334.729 49.8125C331.311 50.9758 327.901 52.1585 324.492 53.3553C324.631 52.3056 324.793 51.2562 324.902 50.2027C325.005 49.2105 324.928 48.184 324.92 47.1869C324.903 44.9957 324.836 42.8167 324.43 40.6636C323.692 36.7535 322.499 32.9036 320.499 29.5284C320.03 28.7377 319.471 28.0165 318.914 27.2985C318.715 27.0416 318.048 26.4336 318.071 26.0383C318.103 25.52 319.112 25.1489 319.458 24.9519ZM358.313 24.5271C359.06 24.5641 359.544 24.75 359.596 25.6162C359.662 26.7203 359.648 27.8386 359.684 28.945C359.754 31.0614 359.824 33.1785 359.773 35.2966C359.683 39.007 359.318 42.7118 358.269 46.2576C357.762 47.9717 357.154 49.6564 356.499 51.3099C355.863 52.9142 354.963 54.3569 354.167 55.8678C353.775 56.6111 353.336 57.2149 352.795 57.8391C352.54 58.1351 352.422 58.293 352.06 58.3435C351.694 58.3944 351.232 58.2919 350.863 58.2632C349.13 58.1282 347.397 57.9419 345.66 57.8512C343.939 57.7615 342.21 57.8401 340.491 57.7536C339.683 57.7127 338.922 57.4285 338.128 57.29C337.328 57.1505 336.519 57.0892 335.715 56.9909C335.3 56.9403 335.311 57.0462 335.248 56.6381C335.214 56.4206 335.272 56.1395 335.283 55.9169C335.303 55.488 335.324 55.0587 335.348 54.63C335.369 54.2468 335.298 53.5741 335.441 53.2116C335.569 52.889 335.842 52.8329 336.128 52.7484C337.729 52.2727 339.276 51.6838 340.816 51.0115C342.387 50.326 343.977 49.6782 345.531 48.9453C346.201 48.6295 346.956 48.3404 347.463 47.7446C347.879 47.2561 348.118 46.6281 348.302 46.0032C349.314 42.5653 348.996 38.6036 348.7 35.0626C348.395 31.4225 347.914 27.6869 346.683 24.265C350.557 24.265 354.442 24.3346 358.313 24.5271ZM315.07 27.6741C316.146 28.1107 316.824 29.1282 317.451 30.109C318.231 31.3318 318.968 32.5681 319.579 33.9024C320.863 36.706 321.71 39.7953 322.194 42.8762C322.656 45.8173 322.885 49.0969 322.353 52.0473C322.211 52.8363 321.839 53.4692 321.632 54.2167C321.492 54.719 321.589 55.4495 321.715 55.9488C321.896 56.6647 322.519 56.4207 323.039 56.3047C323.797 56.1354 324.556 55.9678 325.313 55.795C328.17 55.1424 330.998 54.0072 333.906 53.7777C333.658 54.6148 333.519 55.3744 333.019 56.0921C332.552 56.7634 331.929 57.345 331.66 58.1538C331.436 58.8275 331.393 59.7709 331.621 60.4547C331.86 61.1727 332.447 61.1831 333.061 61.2638C334.79 61.4909 336.491 61.799 338.234 61.9019C338.609 61.9237 338.982 61.9694 339.352 61.8925C339.65 61.8305 339.859 61.7343 340.16 61.7945C340.559 61.8738 340.91 62.0819 341.328 62.1283C341.722 62.1719 342.119 62.158 342.514 62.1421C343.973 62.0829 345.4 62.2477 346.861 62.0937C347.287 62.0486 348.086 61.7873 348.484 62.0507C348.905 62.3291 348.575 62.891 348.785 63.2773C349.061 63.7852 350.008 63.5249 350.466 63.4972C351.12 63.4584 351.7 63.3334 352.286 63.0066C353.471 62.3464 354.542 61.4674 355.414 60.3709C356.326 59.2239 356.987 57.8841 357.639 56.5536C358.32 55.1663 359.002 53.8116 359.516 52.3381C360.042 50.8328 360.557 49.2801 360.855 47.7006C361.152 46.1237 361.341 44.5221 361.622 42.9406C361.915 41.2909 361.966 39.6097 362.044 37.9361C362.124 36.2009 362.159 34.4958 362.059 32.7603C361.96 31.0555 361.786 29.3833 361.602 27.6893C361.555 27.2562 361.579 26.8079 361.515 26.3789C361.472 26.0909 361.333 25.8174 361.318 25.5248C361.288 24.9432 361.78 24.5693 361.767 23.961C361.738 22.5481 360.35 22.0222 359.319 21.6843C357.978 21.245 356.482 20.9801 355.08 21.0892C352.064 21.3239 348.98 21.3544 346.12 22.5467C344.637 19.7957 343.256 16.8114 340.83 14.882C340.556 14.6639 340.259 14.5153 340.082 14.1937C339.931 13.9178 339.864 13.6412 339.662 13.3926C339.164 12.7812 338.55 12.7054 337.853 12.8653C336.337 13.2129 334.888 13.5937 333.45 14.2155C332.812 14.4915 332.135 14.6213 331.493 14.891C330.877 15.1499 330.288 15.475 329.695 15.7911C328.399 16.4836 327.058 17.0714 325.763 17.7694C323.161 19.1715 320.59 20.6412 318.195 22.4318C317.038 23.297 315.712 24.1916 314.732 25.2898C314.3 25.7734 314.104 26.3834 314.176 27.0509C314.251 27.7451 314.579 27.4747 315.07 27.6741Z" fill="black"/>
<path fill-rule="evenodd" clip-rule="evenodd" d="M371.383 36.5148C371.132 37.1676 371.01 37.8635 371.441 38.4766C372.224 39.5893 373.471 37.0554 373.661 36.3482C374.072 34.8149 374.588 33.2702 374.818 31.6866C375.053 30.0716 374.941 28.3351 374.978 26.698C374.854 24.7552 374.615 22.8172 374.187 20.9272C373.808 19.2511 373.405 17.5232 372.144 16.3936C371.62 15.9237 371.26 16.2791 371.186 16.9495C371.105 17.685 371.283 18.4251 371.593 19.0696C372.318 20.5811 372.319 22.3483 372.481 24.0382C372.804 27.3987 372.985 30.7488 372.172 34.0458C371.964 34.8911 371.693 35.7099 371.383 36.5148Z" fill="black"/>
<path fill-rule="evenodd" clip-rule="evenodd" d="M116.939 63.2555C117.278 63.8444 117.833 63.5545 118.15 63.1352C119.113 61.862 120.014 60.4849 120.879 59.13C121.756 57.755 122.56 56.3626 123.554 55.0793C124.555 53.7881 125.581 52.5156 126.619 51.2595C130.496 46.5635 134.475 41.9788 138.75 37.7128C139.795 36.6702 140.87 35.6515 141.873 34.5612C142.315 34.0814 142.852 33.5491 142.832 32.8114C142.817 32.2854 142.5 31.6366 142.076 31.3678C141.154 30.7845 139.917 32.2057 139.232 32.7366C138.708 33.1427 138.146 33.3555 137.595 33.6889C137.114 33.9809 136.633 34.4277 136.22 34.8261C135.293 35.7224 134.294 36.4838 133.354 37.3565C132.4 38.2427 131.557 39.2596 130.619 40.1663C129.617 41.136 128.542 41.9701 127.649 43.0746C126.769 44.1642 126.027 45.3532 125.108 46.4136C123.153 48.67 121.555 51.2198 119.888 53.7286C119.085 54.9364 118.479 56.2597 117.936 57.626C117.666 58.3064 117.398 58.9899 117.142 59.6773C116.9 60.3288 116.88 60.9942 116.768 61.6778C116.909 61.7077 116.803 63.0205 116.939 63.2555Z" fill="black"/>
<path fill-rule="evenodd" clip-rule="evenodd" d="M149.324 6.20649C149.549 5.8211 150.333 5.47233 150.693 5.22145C151.185 4.87884 151.67 4.52904 152.145 4.15871C153.005 3.48649 153.606 3.92836 154.369 4.57217C155.779 5.7612 156.346 7.35857 156.24 9.24822C156.243 9.8003 156.38 10.7237 155.988 11.1783C155.613 11.614 154.833 11.5712 154.337 11.6797C153.688 11.8221 152.708 12.7113 152.036 12.4512C151.446 12.2229 151.655 11.0841 151.608 10.582C151.519 9.64388 151.23 8.73619 150.698 7.97841C150.424 7.58891 150.096 7.25759 149.735 6.96153C149.46 6.73461 149.101 6.58915 149.324 6.20649ZM146.739 9.04526C147.294 9.14999 147.867 9.4286 148.387 9.65689C148.731 9.80817 149.182 9.94987 149.46 10.2182C149.922 10.6635 149.735 11.3662 149.842 11.9491C149.905 12.2899 150.067 12.5833 149.95 12.9375C149.815 13.351 149.415 13.4222 149.212 13.7576C148.915 14.2494 149.298 14.9442 149.554 15.3639C149.999 16.0919 150.606 15.7202 151.292 15.611C152.119 15.4795 152.968 15.4433 153.763 15.1486C154.412 14.909 154.95 14.3531 155.444 15.0924C155.629 15.3683 155.667 15.612 156.03 15.5083C156.332 15.4224 156.639 14.9785 156.846 14.7512C158.138 13.3352 158.446 11.4004 158.467 9.49157C158.529 7.37191 157.818 5.38026 156.809 3.58883C156.597 3.21234 156.384 2.77766 156.068 2.48536C155.76 2.20025 155.358 2.08833 155.079 1.75565C154.663 1.2597 154.76 0.255493 154.096 0.0367843C153.398 -0.194246 152.393 0.72303 151.864 1.11595C151.119 1.66871 150.39 2.24475 149.674 2.83721C148.137 4.10668 146.422 5.32173 145.033 6.77294C144.562 7.26547 144.37 8.13551 144.842 8.72319C145.315 9.3112 146.124 8.92923 146.739 9.04526Z" fill="black"/>
<path fill-rule="evenodd" clip-rule="evenodd" d="M123.731 38.8578C125.493 37.1301 127.426 35.67 129.09 33.8293C129.508 33.3662 129.832 33.0955 129.47 32.4625C129.227 32.0399 128.949 31.8257 128.541 32.1152C127.563 32.8074 126.632 33.6577 125.69 34.4127C123.759 35.9602 121.757 37.4778 120.013 39.2724C119.224 40.0853 118.495 40.9692 117.882 41.9443C117.239 42.9673 116.754 44.0052 117.473 45.1515C119.567 43.0651 121.622 40.9252 123.731 38.8578Z" fill="black"/>
<path fill-rule="evenodd" clip-rule="evenodd" d="M30.7952 156.372C30.9187 156.146 31.2938 156.09 31.4912 156.004C31.8028 155.869 32.098 155.7 32.388 155.519C33.8406 154.611 35.2576 153.684 36.5999 152.591C36.9288 152.323 37.7377 151.339 38.2139 151.495C38.4475 151.571 38.5749 151.991 38.676 152.196C38.8531 152.556 39.0369 152.911 39.2372 153.257C40.0275 154.623 41.0123 155.849 42.1122 156.934C44.1797 158.973 46.5355 160.291 49.3718 160.448C47.5402 163.143 45.7898 165.959 43.7096 168.441C42.66 169.694 41.5087 170.826 40.4187 172.035C40.2325 172.242 40.1324 172.365 39.8873 172.484C39.6501 172.598 39.4242 172.635 39.2282 172.846C38.8871 173.214 38.863 173.761 38.9397 174.246C37.0039 174.327 34.9082 173.389 33.1517 172.619C32.1207 172.167 31.1036 171.664 30.1355 171.07C29.4773 170.667 28.7413 170.216 28.259 169.568C30.0341 168.546 31.8287 167.573 33.5297 166.409C34.6913 165.614 36.7436 164.686 36.5777 162.851C36.5517 162.566 36.4484 162.216 36.2148 162.051C35.8692 161.807 35.7906 162.095 35.4765 162.168C34.9663 162.288 34.364 161.558 33.9748 161.244C32.9223 160.395 31.8942 159.457 31.2698 158.182C31.083 157.801 30.5545 156.815 30.7952 156.372ZM19.9838 172.619C20.2717 171.603 18.9269 170.821 18.3333 170.332C17.4428 169.598 16.8235 168.786 16.2244 167.761C13.8878 163.763 13.0599 158.892 13.2515 154.217C13.3044 152.919 13.4405 151.624 13.4681 150.326C13.4825 149.652 13.4421 149.024 13.5785 148.358C13.7075 147.729 13.8615 147.106 14.004 146.481C14.2889 145.233 14.4349 143.954 14.775 142.721C15.0908 141.578 15.5211 140.476 16.0252 139.416C16.3611 138.709 16.674 137.717 17.5519 137.853C18.6487 138.022 19.721 138.634 20.7893 138.953C21.972 139.306 23.1682 139.602 24.3626 139.905C25.5177 140.199 26.6469 140.617 27.8097 140.87C28.4178 141.003 29.0188 141.057 29.6381 141.046C29.908 141.04 30.3931 141.012 30.4194 141.412C30.4486 141.85 29.8284 142.325 29.5736 142.593C29.2139 142.972 28.9498 143.328 28.7531 143.83C28.2846 145.027 27.8601 146.276 27.6865 147.567C27.5177 148.822 27.5466 150.143 27.5338 151.41C27.5078 153.966 27.8425 156.413 28.6896 158.807C29.4568 160.973 30.6588 162.467 32.3043 163.913C30.585 164.84 28.8658 165.768 27.1462 166.693C25.597 167.527 24.0308 168.246 22.7065 169.478C22.1613 169.985 21.5164 170.57 21.1271 171.232C20.6407 172.058 21.3251 172.62 22.0506 172.289C22.8493 171.926 23.6338 171.51 24.4155 171.107C24.9241 170.844 25.7731 170.14 26.3664 170.158C26.8705 170.173 27.0621 170.871 27.2864 171.258C27.6458 171.876 28.0937 172.428 28.5876 172.925C29.6253 173.97 30.842 174.844 32.1217 175.502C33.5336 176.229 35.0581 176.725 36.5989 177.01C37.4393 177.165 38.2935 177.246 39.1457 177.212C39.7852 177.186 40.6908 177.184 41.268 176.846C41.7647 176.555 41.5042 175.961 41.9961 175.657C42.514 175.337 43.062 175.098 43.5623 174.739C44.7444 173.889 45.4462 172.794 46.1396 171.485C47.7324 168.477 49.6696 165.729 50.861 162.487C51.1398 161.727 51.2993 160.832 51.7553 160.169C52.0588 159.729 52.7362 159.467 52.81 158.888C52.8816 158.323 52.6717 157.074 52.1532 156.813C51.5534 156.511 50.6823 156.507 50.0312 156.342C47.2036 155.628 44.5657 154.539 42.3122 152.514C41.748 152.007 41.2176 151.459 40.7167 150.88C40.3455 150.452 39.9563 150.001 40.0323 149.368C40.0997 148.806 40.5159 147.985 39.6662 147.828C39.0963 147.722 38.3127 148.047 37.8481 148.365C36.4558 149.317 35.1623 150.462 33.8333 151.512C32.621 152.471 31.3792 153.383 30.1473 154.311C30.2911 152.106 30.2247 149.715 30.7095 147.561C30.9466 146.51 31.3603 145.518 31.8916 144.603C32.4378 143.665 32.8732 142.682 33.3507 141.702C33.6164 141.869 34.0508 142.243 34.2937 141.798C34.4449 141.522 34.339 140.795 34.2819 140.477C33.8589 138.122 30.5561 137.887 28.8532 137.485C26.404 136.907 23.9579 136.209 21.4788 135.798C20.3339 135.609 19.1987 135.571 18.0464 135.495C17.4553 135.456 16.7664 135.314 16.4086 135.961C16.3127 136.135 16.2989 136.383 16.1943 136.521C16.0983 136.648 15.8189 136.772 15.6873 136.887C15.3058 137.219 14.9762 137.61 14.6878 138.038C14.097 138.912 13.6921 139.917 13.3009 140.908C12.3575 143.297 11.8217 145.833 11.5274 148.405C11.2258 151.041 11.0156 153.767 11.1761 156.422C11.4713 161.31 12.698 166.282 15.5416 170.188C16.1936 171.084 16.9041 171.817 17.8436 172.351C18.2983 172.609 19.7271 173.523 19.9838 172.619Z" fill="black"/>
</svg>
